<svg width="89" height="90" viewBox="0 0 89 90" fill="none" xmlns="http://www.w3.org/2000/svg">
<path d="M40.3293 54.5244V62.9128C33.6924 62.9128 27.3274 65.5641 22.6345 70.2835C17.9415 75.0028 15.305 81.4037 15.305 88.0779H6.96362C6.96362 79.179 10.4789 70.6445 16.7362 64.352C22.9935 58.0595 31.4801 54.5244 40.3293 54.5244ZM40.3293 50.3302C26.5034 50.3302 15.305 39.0688 15.305 25.1651C15.305 11.2614 26.5034 0 40.3293 0C54.1552 0 65.3535 11.2614 65.3535 25.1651C65.3535 39.0688 54.1552 50.3302 40.3293 50.3302ZM40.3293 41.9419C49.5465 41.9419 57.0121 34.4343 57.0121 25.1651C57.0121 15.896 49.5465 8.38837 40.3293 8.38837C31.112 8.38837 23.6464 15.896 23.6464 25.1651C23.6464 34.4343 31.112 41.9419 40.3293 41.9419ZM77.8656 67.107H82.0363V88.0779H48.6707V67.107H52.8414V62.9128C52.8414 59.5757 54.1596 56.3753 56.5061 54.0156C58.8526 51.6559 62.0351 50.3302 65.3535 50.3302C68.6719 50.3302 71.8544 51.6559 74.2009 54.0156C76.5474 56.3753 77.8656 59.5757 77.8656 62.9128V67.107ZM69.5242 67.107V62.9128C69.5242 61.8004 69.0848 60.7336 68.3026 59.947C67.5205 59.1605 66.4596 58.7186 65.3535 58.7186C64.2474 58.7186 63.1865 59.1605 62.4044 59.947C61.6222 60.7336 61.1828 61.8004 61.1828 62.9128V67.107H69.5242Z" fill="#E9C65C"/>
</svg>
