<svg width="89" height="87" viewBox="0 0 89 87" fill="none" xmlns="http://www.w3.org/2000/svg">
<path d="M85.2859 13.8417L46.1639 0.603417C45.1573 0.271517 44.0732 0.271517 43.0667 0.603417L4.02612 13.8003H3.94461L3.74085 13.8831L3.49634 14.0072L3.21107 14.1313L3.04806 14.214L2.80355 14.3795L2.68129 14.4622L2.43678 14.6277C2.43678 14.6497 2.42819 14.6707 2.41291 14.6862C2.39762 14.7017 2.37689 14.7105 2.35528 14.7105L2.07001 14.9587C2.07001 14.9696 2.06572 14.9802 2.05808 14.9879C2.05043 14.9957 2.04007 15 2.02926 15L1.74399 15.331L1.66249 15.4551C1.61993 15.4828 1.58348 15.5192 1.55543 15.5619C1.52737 15.6046 1.50833 15.6528 1.49948 15.7033L1.37722 15.8274L1.25497 16.0343C1.21422 16.117 1.17346 16.1584 1.17346 16.1998L1.05121 16.448L0.969703 16.6135L0.847447 16.9858C0.819854 17.0364 0.805803 17.0934 0.806695 17.1513C0.761393 17.2416 0.733717 17.3399 0.72519 17.4409C0.72519 17.4822 0.684438 17.565 0.684438 17.6063C0.684438 17.6477 0.643686 17.8132 0.643686 17.8959V18.0614C0.606108 18.2239 0.592376 18.3912 0.602934 18.5578V51.6535C0.602934 52.9702 1.11816 54.2329 2.03526 55.1639C2.95236 56.0949 4.19622 56.6179 5.49319 56.6179C6.79017 56.6179 8.03403 56.0949 8.95113 55.1639C9.86823 54.2329 10.3835 52.9702 10.3835 51.6535V25.4252L20.0417 28.7348C17.0599 34.5335 16.1651 41.2069 17.5117 47.6037C18.8582 54.0006 22.3617 59.7198 27.4179 63.7748C20.5 67.042 14.6257 72.2168 10.465 78.7093C10.1117 79.2553 9.86793 79.8665 9.74743 80.5082C9.62693 81.1498 9.63211 81.8093 9.76266 82.4489C9.89322 83.0885 10.1466 83.6958 10.5083 84.236C10.8701 84.7762 11.3331 85.2388 11.8709 85.5973C12.4087 85.9559 13.0109 86.2034 13.643 86.3257C14.275 86.448 14.9246 86.4428 15.5547 86.3103C16.1848 86.1777 16.783 85.9205 17.3151 85.5533C17.8472 85.1861 18.3029 84.7161 18.6561 84.1701C21.4622 79.7732 25.3075 76.1589 29.8415 73.6565C34.3756 71.1542 39.4544 69.8433 44.6153 69.8433C49.7761 69.8433 54.8549 71.1542 59.389 73.6565C63.9231 76.1589 67.7683 79.7732 70.5744 84.1701C71.0254 84.8585 71.6373 85.4229 72.3555 85.8127C73.0738 86.2025 73.8759 86.4057 74.6904 86.404C75.6294 86.4056 76.5489 86.1327 77.3393 85.618C78.4279 84.8913 79.1889 83.7568 79.4562 82.4623C79.7234 81.1678 79.4752 79.8185 78.7656 78.7093C74.6048 72.2168 68.7306 67.042 61.8127 63.7748C66.8688 59.7198 70.3723 54.0006 71.7189 47.6037C73.0655 41.2069 72.1707 34.5335 69.1888 28.7348L85.2859 23.274C86.2643 22.9475 87.1162 22.3158 87.7201 21.469C88.3241 20.6221 88.6492 19.6033 88.6492 18.5578C88.6492 17.5124 88.3241 16.4936 87.7201 15.6467C87.1162 14.7998 86.2643 14.1681 85.2859 13.8417V13.8417ZM44.6153 10.5321L68.2923 18.5578L59.8158 21.4123L44.6153 26.5835L29.4147 21.4123L20.9383 18.5578L44.6153 10.5321ZM62.5462 41.7248C62.5434 44.5499 61.8929 47.3356 60.6461 49.8614C59.3993 52.3871 57.5905 54.5836 55.3629 56.2769C53.1352 57.9703 50.5499 59.114 47.8115 59.6176C45.0731 60.1212 42.2569 59.9708 39.5856 59.1783C36.9144 58.3859 34.4616 56.9731 32.4212 55.0519C30.3809 53.1307 28.809 50.7537 27.8302 48.1091C26.8513 45.4645 26.4922 42.6249 26.7814 39.8151C27.0706 37.0053 28 34.3023 29.4962 31.9202L43.0667 36.5123C44.0732 36.8442 45.1573 36.8442 46.1639 36.5123L59.7343 31.9202C61.5803 34.8462 62.5565 38.2502 62.5462 41.7248V41.7248Z" fill="#E9C65C"/>
</svg>
